<?xml version="1.0" encoding="UTF-8"?>
<svg version="1.1" xmlns="http://www.w3.org/2000/svg" width="512" height="512">
<path d="M0 0 C0.59506348 0.43103027 1.19012695 0.86206055 1.80322266 1.30615234 C21.8236313 15.80814689 41.04822261 32.17629515 56 52 C56.4031543 52.52142578 56.80630859 53.04285156 57.22167969 53.58007812 C90.37923727 96.51326971 109.66686894 148.63143775 111 203 C111.03996094 204.06476563 111.07992188 205.12953125 111.12109375 206.2265625 C112.34483743 265.39816876 91.53084128 322.84719606 55 369 C54.57460938 369.54253418 54.14921875 370.08506836 53.7109375 370.64404297 C42.25052589 385.136238 28.80062483 398.9263053 14 410 C12.90213588 410.849992 11.80449404 411.70027115 10.70703125 412.55078125 C-25.48667163 440.20389714 -70.57096843 458.74965318 -116 463 C-117.00933594 463.10957031 -118.01867187 463.21914063 -119.05859375 463.33203125 C-185.58247758 469.43887493 -252.34546882 449.38320507 -304 407 C-306.61416597 404.7326492 -309.18494396 402.42995871 -311.73046875 400.0859375 C-313.8276005 398.15845324 -315.96376355 396.29238643 -318.125 394.4375 C-339.34048855 375.91129873 -356.01807112 351.84853287 -369 327 C-369.39396973 326.25540527 -369.78793945 325.51081055 -370.19384766 324.74365234 C-399.81198217 268.07827965 -405.5996357 198.33010706 -386.9921875 137.26953125 C-382.60091316 123.40121969 -377.43468505 110.04457892 -371 97 C-370.64470215 96.27167969 -370.2894043 95.54335937 -369.92333984 94.79296875 C-359.97912187 74.60443295 -346.90583045 56.08869817 -331.51171875 39.69921875 C-329.47639148 37.51195414 -327.53878948 35.29182197 -325.625 33 C-316.67414924 22.73097169 -305.86119866 14.14674939 -295 6 C-294.18402344 5.38769531 -293.36804688 4.77539062 -292.52734375 4.14453125 C-211.1090309 -54.64982503 -105.07026357 -58.06813475 0 0 Z M-278 25 C-278.59329102 25.43779785 -279.18658203 25.8755957 -279.79785156 26.32666016 C-298.58351558 40.29429299 -315.32464187 56.99478702 -329 76 C-329.39896484 76.55316895 -329.79792969 77.10633789 -330.20898438 77.67626953 C-364.04667143 125.17708062 -379.1640706 186.21024869 -370 244 C-366.57274817 264.14922781 -360.9292959 283.18901079 -353 302 C-352.01 302 -351.02 302 -350 302 C-348.30529949 300.33539984 -348.30529949 300.33539984 -346.69921875 298.07421875 C-346.05903809 297.22456543 -345.41885742 296.37491211 -344.75927734 295.49951172 C-344.07559082 294.57154785 -343.3919043 293.64358398 -342.6875 292.6875 C-341.61943115 291.26074951 -341.61943115 291.26074951 -340.52978516 289.80517578 C-338.34279038 286.87768333 -336.16985772 283.9402096 -334 281 C-332.77483213 279.34758763 -331.54957746 277.69523961 -330.32421875 276.04296875 C-326.86866692 271.37232048 -323.43239976 266.68767738 -320 262 C-312.00779605 251.08493289 -303.92668204 240.25094987 -295.69995117 229.51123047 C-291.44266647 223.93811466 -287.29499152 218.30489967 -283.25537109 212.57250977 C-279.98037247 207.93257349 -276.54448868 203.43647921 -273 199 C-269.26128094 202.51879441 -266.27878282 206.21946832 -263.33203125 210.42578125 C-262.89246094 210.94527344 -262.45289063 211.46476563 -262 212 C-261.34 212 -260.68 212 -260 212 C-258.63486054 210.52193 -258.63486054 210.52193 -257.26953125 208.546875 C-256.72167969 207.79277344 -256.17382812 207.03867188 -255.609375 206.26171875 C-255.01640625 205.43285156 -254.4234375 204.60398438 -253.8125 203.75 C-252.53864679 201.99414827 -251.26387781 200.23896063 -249.98828125 198.484375 C-249.32908691 197.57494141 -248.66989258 196.66550781 -247.99072266 195.72851562 C-244.87101643 191.45259745 -241.68594919 187.22665922 -238.5 183 C-233.5219136 176.38344969 -228.58766702 169.73693471 -223.6875 163.0625 C-215.41911205 151.82837794 -215.41911205 151.82837794 -211.25 146.3125 C-210.47140625 145.27738281 -209.6928125 144.24226562 -208.890625 143.17578125 C-208.26671875 142.45777344 -207.6428125 141.73976562 -207 141 C-206.34 141 -205.68 141 -205 141 C-203.22951355 143.21537792 -201.57320255 145.43786862 -199.9375 147.75 C-198.94688073 149.12128605 -197.95599125 150.49237694 -196.96484375 151.86328125 C-195.52486707 153.86971419 -194.08722053 155.87775215 -192.65283203 157.88818359 C-191.4436206 159.57755717 -190.22297027 161.25807444 -189 162.9375 C-188.29875 163.91589844 -187.5975 164.89429688 -186.875 165.90234375 C-186.25625 166.59457031 -185.6375 167.28679687 -185 168 C-184.01 168 -183.02 168 -182 168 C-180.2888992 166.31903883 -180.2888992 166.31903883 -178.6640625 164.0390625 C-178.01840332 163.18376953 -177.37274414 162.32847656 -176.70751953 161.44726562 C-176.02028809 160.51591797 -175.33305664 159.58457031 -174.625 158.625 C-173.91327637 157.67560547 -173.20155273 156.72621094 -172.46826172 155.74804688 C-167.40568221 148.97081384 -162.4382157 142.12506257 -157.51196289 135.24829102 C-153.66552365 129.88551881 -149.68689488 124.65250243 -145.63671875 119.44140625 C-142.47701406 115.34773895 -139.43107477 111.17124411 -136.375 107 C-129.23766639 97.2640263 -121.9299869 87.66188204 -114.5871582 78.08032227 C-114.063396 77.39381592 -113.53963379 76.70730957 -113 76 C-112.43563232 75.29222412 -111.87126465 74.58444824 -111.28979492 73.85522461 C-109.79786885 72.10257915 -109.79786885 72.10257915 -110.0625 70 C-111.13984762 67.40663761 -111.13984762 67.40663761 -115 64 C-105.76 60.04 -96.52 56.08 -87 52 C-88.32 62.23 -89.64 72.46 -91 83 C-93.31 81.35 -95.62 79.7 -98 78 C-102.42612113 82.13764024 -105.89379216 86.72332015 -109.4375 91.625 C-110.68875217 93.33857812 -111.94005565 95.05211876 -113.19140625 96.765625 C-113.82578613 97.63767578 -114.46016602 98.50972656 -115.11376953 99.40820312 C-118.02285783 103.40546968 -120.9460046 107.39230364 -123.875 111.375 C-124.44661865 112.15246582 -125.0182373 112.92993164 -125.60717773 113.73095703 C-130.67421528 120.6008731 -135.85047644 127.384874 -141.03857422 134.16357422 C-146.00093943 140.65834654 -150.86650871 147.21810402 -155.69335938 153.81396484 C-160.86044623 160.85610916 -166.15655594 167.79684296 -171.49609375 174.70898438 C-175.561266 180.00035889 -179.37596496 185.39691789 -183 191 C-185.72020875 188.38004647 -188.06285358 185.72122886 -190.27734375 182.6640625 C-191.17163086 181.43816406 -191.17163086 181.43816406 -192.08398438 180.1875 C-192.69564453 179.341875 -193.30730469 178.49625 -193.9375 177.625 C-197.81512907 172.27938198 -201.69743092 167.01286037 -206 162 C-210.38711608 166.10223841 -213.80872788 170.63476214 -217.3125 175.5 C-222.45748573 182.56680537 -227.68252822 189.56206369 -233 196.5 C-239.40208072 204.8635957 -245.68947882 213.3044517 -251.9140625 221.80078125 C-254.91136505 225.8908702 -257.94870218 229.95008317 -261 234 C-264.01693943 231.14325205 -266.40554531 228.17651069 -268.75 224.75 C-269.36359375 223.85796875 -269.9771875 222.9659375 -270.609375 222.046875 C-271.06828125 221.37140625 -271.5271875 220.6959375 -272 220 C-276.48524287 224.18343213 -279.97852296 228.84915027 -283.5625 233.8125 C-284.81319986 235.52778302 -286.06451147 237.24262014 -287.31640625 238.95703125 C-287.93789551 239.80990723 -288.55938477 240.6627832 -289.19970703 241.54150391 C-291.76941509 245.0507201 -294.38145035 248.52716234 -297 252 C-301.29129495 257.69936495 -305.53037185 263.43491384 -309.75 269.1875 C-314.83924513 276.12305279 -320.01957514 282.98289767 -325.25 289.8125 C-329.85143429 295.83183733 -334.43802196 301.85796419 -338.875 308 C-339.63554687 309.051875 -340.39609375 310.10375 -341.1796875 311.1875 C-343.63183467 314.86936251 -343.63183467 314.86936251 -345 319 C-343.82404521 322.35441738 -343.82404521 322.35441738 -341.6875 325.625 C-341.03136719 326.75164062 -340.37523437 327.87828125 -339.69921875 329.0390625 C-334.89688798 335.3010389 -325.4153022 335.62726035 -318.125 336.625 C-317.30386719 336.74617188 -316.48273438 336.86734375 -315.63671875 336.9921875 C-313.09399561 337.35713372 -310.54965495 337.68727211 -308 338 C-307.20231201 338.09861328 -306.40462402 338.19722656 -305.58276367 338.29882812 C-280.41873694 340.99696695 -253.95604087 339.7520726 -229 336 C-227.69949707 335.80664062 -226.39899414 335.61328125 -225.05908203 335.4140625 C-196.56480441 331.10495901 -168.59268502 324.51105996 -140.58906937 317.78793526 C-138.52990868 317.29374061 -136.47058714 316.80022134 -134.41122437 316.30686951 C-133.02251394 315.97406306 -131.63381157 315.641223 -130.24511719 315.30834961 C-129.55420549 315.14274505 -128.8632938 314.97714048 -128.15144539 314.8065176 C-124.75895956 313.99253347 -121.36738029 313.17507493 -117.97766113 312.34963989 C-66.93073389 299.92491505 -20.74646282 289.48760333 30.375 306.5 C31.07501129 306.73288727 31.77502258 306.96577454 32.49624634 307.20571899 C40.16692622 309.7803008 47.60840935 312.54673676 54.85009766 316.19726562 C57.13089901 317.30530829 57.13089901 317.30530829 60 316 C61.73905744 313.10025739 61.73905744 313.10025739 63.25 309.625 C63.79140625 308.46226562 64.3328125 307.29953125 64.890625 306.1015625 C66.35111116 303.02456967 66.35111116 303.02456967 65 300 C63.15580332 298.87328165 63.15580332 298.87328165 60.8203125 298.01953125 C59.92449463 297.66391113 59.02867676 297.30829102 58.10571289 296.94189453 C57.12207764 296.56919434 56.13844238 296.19649414 55.125 295.8125 C54.10720459 295.42175293 53.08940918 295.03100586 52.04077148 294.62841797 C34.88760279 288.18899869 17.17223142 282.61535837 -1 280 C-1.79148437 279.87109375 -2.58296875 279.7421875 -3.3984375 279.609375 C-16.14451798 277.80881345 -29.17046665 279.03508373 -41.8125 280.9375 C-42.55519135 281.04703003 -43.29788269 281.15656006 -44.06307983 281.26940918 C-76.93334255 286.16139898 -109.1287565 294.19278496 -141.36417007 302.12917328 C-173.20835333 309.96638281 -205.30859662 317.66506608 -238 321 C-239.22674438 321.13704346 -239.22674438 321.13704346 -240.47827148 321.27685547 C-250.73089462 322.29440904 -261.01964329 322.24267236 -271.3125 322.25 C-272.29288239 322.25100708 -273.27326477 322.25201416 -274.28335571 322.25305176 C-294.84948216 322.23875615 -314.07913323 320.26766544 -334 315 C-333.51273438 314.35417969 -333.02546875 313.70835937 -332.5234375 313.04296875 C-328.3738132 307.52774081 -324.25460038 301.99233685 -320.17236328 296.42700195 C-313.86818806 287.83483518 -307.46146177 279.32935513 -300.98461914 270.86669922 C-295.26189722 263.37602151 -289.65679611 255.80323744 -284.0859375 248.19921875 C-281.08863495 244.1091298 -278.05129782 240.04991683 -275 236 C-270.78185183 239.9700218 -267.38772897 244.30840284 -264 249 C-260.00763338 247.66921113 -258.70269553 245.08908888 -256.4375 241.75 C-255.53715879 240.45563601 -254.63476735 239.16269604 -253.73046875 237.87109375 C-253.27333496 237.21737793 -252.81620117 236.56366211 -252.34521484 235.89013672 C-250.38737693 233.13921456 -248.32420182 230.47639226 -246.25 227.8125 C-242.19983864 222.60733132 -238.27246706 217.32032591 -234.375 212 C-228.39939435 203.84592676 -222.30423347 195.78854121 -216.15380859 187.765625 C-215.51008301 186.92515625 -214.86635742 186.0846875 -214.203125 185.21875 C-213.63239258 184.47560547 -213.06166016 183.73246094 -212.47363281 182.96679688 C-211.2622123 181.34996393 -210.12067129 179.68100694 -209 178 C-208.34 178 -207.68 178 -207 178 C-205.25140084 180.19485623 -203.61547911 182.3972603 -202 184.6875 C-201.01566755 186.05825824 -200.02996019 187.42803008 -199.04296875 188.796875 C-198.28959229 189.84391602 -198.28959229 189.84391602 -197.52099609 190.91210938 C-195.17556227 194.13171612 -192.75084574 197.28797008 -190.3125 200.4375 C-189.87873047 200.99848389 -189.44496094 201.55946777 -188.99804688 202.13745117 C-188.0001678 203.426107 -187.0003279 204.71324416 -186 206 C-182.47298664 202.59739628 -179.3984325 199.09031966 -176.4375 195.1875 C-176.01114258 194.62691895 -175.58478516 194.06633789 -175.14550781 193.48876953 C-173.75918528 191.66252733 -172.37913667 189.83167336 -171 188 C-170.53674316 187.38688965 -170.07348633 186.7737793 -169.59619141 186.14208984 C-163.75464066 178.40891284 -157.98418627 170.6255307 -152.25 162.8125 C-147.23825845 155.98577812 -142.146517 149.22563233 -137 142.5 C-130.14855321 133.54376901 -123.42571734 124.5005787 -116.76171875 115.40429688 C-113.63776033 111.14089021 -110.5068665 106.88259897 -107.375 102.625 C-106.79476074 101.83399902 -106.21452148 101.04299805 -105.61669922 100.22802734 C-102.81752283 96.42177481 -99.98968925 92.66054635 -97 89 C-96.34 89.66 -95.68 90.32 -95 91 C-94.34 90.01 -93.68 89.02 -93 88 C-86.30560924 96.68491559 -79.66805176 105.40401899 -73.1875 114.25 C-68.19882209 121.05788897 -63.12983641 127.79786843 -58 134.5 C-49.95865746 145.01136962 -42.10939462 155.65631249 -34.29101562 166.33398438 C-25.56322754 178.24637017 -16.67736087 190.02770767 -7.70947266 201.76025391 C-1.1631312 210.33725141 5.23284208 219.0244023 11.6262207 227.71557617 C18.10831541 236.52000646 24.67580836 245.25939204 31.25390625 253.9921875 C35.18628335 259.22087308 39.08568102 264.47108334 42.95629883 269.74560547 C45.35391564 273.00965383 47.75958852 276.26768601 50.16845703 279.5234375 C51.39801334 281.18601004 52.62552638 282.85009546 53.85107422 284.515625 C55.62000324 286.91378936 57.40182791 289.30178734 59.1875 291.6875 C59.72793945 292.42444092 60.26837891 293.16138184 60.82519531 293.9206543 C61.58268066 294.9247937 61.58268066 294.9247937 62.35546875 295.94921875 C62.79528076 296.54049561 63.23509277 297.13177246 63.68823242 297.7409668 C65.05769437 299.34622818 65.05769437 299.34622818 68 299 C91.11239286 240.31853501 92.03480478 176.52423117 66.75 118.25 C50.69212575 82.37813642 25.32196188 48.78222611 -7 26 C-7.67853027 25.52014648 -8.35706055 25.04029297 -9.05615234 24.54589844 C-86.21963683 -29.48413629 -191.48014187 -34.77110629 -278 25 Z " fill="#17387E" transform="translate(398,47)"/>
<path d="M0 0 C4.74724435 4.42833158 8.54016613 9.44738254 12.4375 14.625 C13.14197266 15.55505859 13.84644531 16.48511719 14.57226562 17.44335938 C19.67567405 24.19746594 24.70607495 31.00362053 29.70874023 37.83251953 C34.07086582 43.77476828 38.51988168 49.64633642 43 55.5 C51.0413063 66.01139798 58.89060474 76.65631162 66.70898438 87.33398438 C74.05128904 97.35535118 81.48699271 107.29495355 89.03637695 117.16137695 C94.0203443 123.68572296 98.91462206 130.27067557 103.77026367 136.89086914 C111.24565058 147.07702873 118.85264547 157.16484181 126.453125 167.2578125 C129.72374988 171.60653225 132.97874897 175.96556254 136.19921875 180.3515625 C136.77712158 181.13845459 137.35502441 181.92534668 137.95043945 182.73608398 C139.1463768 184.36522615 140.3415318 185.99494293 141.53588867 187.62524414 C144.57122324 191.75483061 147.640606 195.85035108 150.7890625 199.89453125 C151.39137695 200.66966064 151.99369141 201.44479004 152.61425781 202.2434082 C153.76608052 203.71960029 154.92405823 205.1910156 156.08886719 206.65698242 C156.60352539 207.31674072 157.11818359 207.97649902 157.6484375 208.65625 C158.10395996 209.23181641 158.55948242 209.80738281 159.02880859 210.40039062 C160 212 160 212 160 215 C158.91847656 214.43023437 157.83695312 213.86046875 156.72265625 213.2734375 C137.25885582 203.56501851 114.98631584 197.54762853 93.5625 194.125 C92.83119873 194.00463379 92.09989746 193.88426758 91.34643555 193.76025391 C78.26008728 191.90168413 65.18900232 192.98098962 52.1875 194.9375 C51.44480865 195.04703003 50.70211731 195.15656006 49.93692017 195.26940918 C17.06665745 200.16139898 -15.1287565 208.19278496 -47.36417007 216.12917328 C-79.20835333 223.96638281 -111.30859662 231.66506608 -144 235 C-144.81782959 235.0913623 -145.63565918 235.18272461 -146.47827148 235.27685547 C-156.73089445 236.29440903 -167.0196435 236.24267305 -177.3125 236.25 C-178.29321472 236.25100708 -179.27392944 236.25201416 -180.28436279 236.25305176 C-194.73192635 236.24301319 -208.79062293 235.86383825 -223 233 C-223.87865723 232.82355957 -224.75731445 232.64711914 -225.66259766 232.46533203 C-230.80087244 231.40906401 -235.90624344 230.25277159 -241 229 C-237.14917691 222.67020955 -233.10011603 216.74522299 -228.40234375 211.01953125 C-225.32604944 207.15290441 -222.4161537 203.17559633 -219.5 199.1875 C-213.75903747 191.34527522 -207.91131466 183.59274373 -201.99145508 175.88476562 C-198.59316809 171.44814768 -195.24560559 166.9849735 -191.98046875 162.44921875 C-191.34173828 161.56492187 -190.70300781 160.680625 -190.04492188 159.76953125 C-188.83068834 158.08160618 -187.62458338 156.38779603 -186.42773438 154.6875 C-185.88826172 153.93855469 -185.34878906 153.18960938 -184.79296875 152.41796875 C-184.3239917 151.75563232 -183.85501465 151.0932959 -183.37182617 150.41088867 C-182.91912354 149.94529541 -182.4664209 149.47970215 -182 149 C-181.01 149 -180.02 149 -179 149 C-177.35548177 150.96990419 -175.88950045 152.89661273 -174.4375 155 C-173.00577308 157.05391519 -171.54718919 159.0271136 -170 161 C-169.34 161 -168.68 161 -168 161 C-166.41678711 158.969225 -164.9497824 156.93594943 -163.5 154.8125 C-162.59052063 153.50903363 -161.67901555 152.20697865 -160.765625 150.90625 C-160.30220703 150.24625 -159.83878906 149.58625 -159.36132812 148.90625 C-157.39480723 146.15255646 -155.32823093 143.48254503 -153.25 140.8125 C-149.19994612 135.6072402 -145.27256593 130.32026195 -141.375 125 C-134.23771048 115.26399489 -126.92998605 105.66188092 -119.5871582 96.08032227 C-118.04704793 94.06166673 -116.52045366 92.03348841 -115 90 C-110.83548299 91.38817234 -109.30501906 94.35762663 -106.875 97.8125 C-105.89775986 99.17492729 -104.91988534 100.53689975 -103.94140625 101.8984375 C-103.20688232 102.92662598 -103.20688232 102.92662598 -102.45751953 103.97558594 C-100.28409548 106.99435181 -98.05250088 109.96797425 -95.8125 112.9375 C-95.07644531 113.91589844 -94.34039062 114.89429688 -93.58203125 115.90234375 C-93.05996094 116.59457031 -92.53789062 117.28679687 -92 118 C-87.45558125 113.77104747 -83.93680659 109.02469728 -80.3125 104 C-79.05967493 102.28046175 -77.80576556 100.56171298 -76.55078125 98.84375 C-75.94186035 98.00972656 -75.33293945 97.17570312 -74.70556641 96.31640625 C-72.51477732 93.34099731 -70.26719809 90.41765459 -68 87.5 C-64.04073175 82.39293085 -60.19478695 77.21208046 -56.375 72 C-51.30689677 65.0846507 -46.15342572 58.24196904 -40.9375 51.4375 C-35.34075091 44.13294905 -29.88278706 36.74657012 -24.5246582 29.265625 C-20.53447062 23.70578415 -16.42970891 18.25280947 -12.22265625 12.85546875 C-10.77562053 10.99644747 -9.34494851 9.12453421 -7.93359375 7.23828125 C-7.31613281 6.41714844 -6.69867188 5.59601563 -6.0625 4.75 C-5.53785156 4.04359375 -5.01320313 3.3371875 -4.47265625 2.609375 C-3 1 -3 1 0 0 Z " fill="#0FAC59" transform="translate(304,134)"/>
<path d="M0 0 C0.33 0 0.66 0 1 0 C1 5.61 1 11.22 1 17 C-1.19140625 16.98839844 -3.3828125 16.97679687 -5.640625 16.96484375 C-7.76871598 16.95703958 -9.89680534 16.95097056 -12.02490234 16.94506836 C-13.50114661 16.94004712 -14.97738592 16.93322884 -16.45361328 16.92456055 C-18.57846298 16.91239811 -20.70324678 16.90674954 -22.828125 16.90234375 C-24.1059082 16.89710693 -25.38369141 16.89187012 -26.70019531 16.88647461 C-29.3620936 16.97805368 -31.48309582 17.19891486 -34 18 C-30.41687008 18.17123244 -26.83347258 18.33610818 -23.25 18.5 C-22.25355469 18.54769531 -21.25710937 18.59539062 -20.23046875 18.64453125 C-18.73193359 18.71220703 -18.73193359 18.71220703 -17.203125 18.78125 C-16.30239258 18.82314453 -15.40166016 18.86503906 -14.47363281 18.90820312 C-9.3174646 19.04446397 -4.15796837 19 1 19 C1 33.52 1 48.04 1 63 C-14.51 63 -30.02 63 -46 63 C-46.33 53.76 -46.66 44.52 -47 35 C-48.72657926 39.31644814 -49.2422691 40.92975232 -49.16015625 45.265625 C-49.14919922 46.23757813 -49.13824219 47.20953125 -49.12695312 48.2109375 C-49.10568359 49.21382813 -49.08441406 50.21671875 -49.0625 51.25 C-49.02823496 53.25513921 -48.99805635 55.2603539 -48.97265625 57.265625 C-48.94570679 58.59255371 -48.94570679 58.59255371 -48.91821289 59.94628906 C-49 62 -49 62 -50 63 C-51.41327947 63.15620555 -52.8335459 63.25056173 -54.25390625 63.31640625 C-55.10791016 63.35830078 -55.96191406 63.40019531 -56.84179688 63.44335938 C-57.73962891 63.48267578 -58.63746094 63.52199219 -59.5625 63.5625 C-60.46419922 63.60568359 -61.36589844 63.64886719 -62.29492188 63.69335938 C-64.52978485 63.79978142 -66.76476308 63.90179988 -69 64 C-69 64.66 -69 65.32 -69 66 C-72.63 66 -76.26 66 -80 66 C-80 61.91123974 -78.42364301 60.67965752 -75.875 57.5 C-74.95248771 56.33225866 -74.03203632 55.16288724 -73.11328125 53.9921875 C-72.6126416 53.35506836 -72.11200195 52.71794922 -71.59619141 52.06152344 C-68.68357066 48.29979668 -65.87952434 44.45848039 -63.0625 40.625 C-62.4651001 39.82280029 -61.8677002 39.02060059 -61.25219727 38.1940918 C-58.39705228 34.3462909 -55.63102245 30.48496608 -53.046875 26.44921875 C-46.51598662 16.44721605 -46.51598662 16.44721605 -41.875 15.078125 C-39.07567547 15.06384273 -36.70221473 15.29439267 -34 16 C-33.61714844 15.15695312 -33.61714844 15.15695312 -33.2265625 14.296875 C-31.84307219 11.70613518 -30.20061417 9.54892155 -28.375 7.25 C-27.74335937 6.45078125 -27.11171875 5.6515625 -26.4609375 4.828125 C-25.97882813 4.22484375 -25.49671875 3.6215625 -25 3 C-21.06322574 4.31225809 -20.1728218 6.1961394 -17.8125 9.5625 C-17.09707031 10.57441406 -16.38164062 11.58632813 -15.64453125 12.62890625 C-15.10183594 13.41136719 -14.55914062 14.19382812 -14 15 C-9.81872043 13.47866487 -7.7945721 10.43366416 -5.3125 6.9375 C-4.51736874 5.84212718 -3.72181693 4.74705948 -2.92578125 3.65234375 C-2.29027344 2.77707031 -1.65476562 1.90179688 -1 1 C-0.67 0.67 -0.34 0.34 0 0 Z " fill="#27B56A" transform="translate(148,292)"/>
<path d="M0 0 C3.27988611 1.09329537 3.73258291 1.62133322 5.6640625 4.30859375 C6.14617187 4.97310547 6.62828125 5.63761719 7.125 6.32226562 C7.62 7.02029297 8.115 7.71832031 8.625 8.4375 C9.12773437 9.13166016 9.63046875 9.82582031 10.1484375 10.54101562 C15.20449409 17.56105119 15.20449409 17.56105119 14.5625 23.125 C14.40974609 24.49011719 14.40974609 24.49011719 14.25390625 25.8828125 C14.17011719 26.58148438 14.08632812 27.28015625 14 28 C13.01 27.67 12.02 27.34 11 27 C11 30.63 11 34.26 11 38 C10.12674072 38.02505615 9.25348145 38.0501123 8.35375977 38.07592773 C5.12397448 38.17087709 1.89435846 38.27012029 -1.33520508 38.37231445 C-2.73489199 38.41571434 -4.13463359 38.45738564 -5.53442383 38.49731445 C-7.54261495 38.55489445 -9.55061149 38.61914 -11.55859375 38.68359375 C-13.37315063 38.73858032 -13.37315063 38.73858032 -15.22436523 38.79467773 C-17.90705456 38.68938266 -17.90705456 38.68938266 -19 40 C-4.15 40.495 -4.15 40.495 11 41 C11 55.19 11 69.38 11 84 C-2.83483241 85.1529027 -2.83483241 85.1529027 -9.5390625 85.1328125 C-10.27200531 85.13376923 -11.00494812 85.13472595 -11.76010132 85.13571167 C-13.28066089 85.13638246 -14.80122353 85.13460662 -16.32177734 85.13037109 C-18.65598808 85.12492774 -20.99001321 85.13039299 -23.32421875 85.13671875 C-24.81250042 85.13605929 -26.30078198 85.13478088 -27.7890625 85.1328125 C-28.48480377 85.13483673 -29.18054504 85.13686096 -29.89736938 85.13894653 C-34.76996821 85.1150159 -34.76996821 85.1150159 -37 84 C-37.33 78.06 -37.66 72.12 -38 66 C-38.99 66.495 -38.99 66.495 -40 67 C-42.15080952 56.2795588 -42.15080952 56.2795588 -39.77734375 51.578125 C-38.45702831 49.99711033 -37.08566348 48.4582054 -35.68359375 46.94921875 C-32.30600119 43.23730844 -29.43645243 39.25142145 -26.5 35.1875 C-19.33091194 25.38147202 -11.97571839 15.72155646 -4.5871582 6.08032227 C-3.04704793 4.06166673 -1.52045366 2.03348841 0 0 Z " fill="#1AAF61" transform="translate(189,224)"/>
<path d="M0 0 C15.51 0 31.02 0 47 0 C47 13.86 47 27.72 47 42 C31.49 42 15.98 42 0 42 C0 28.14 0 14.28 0 0 Z " fill="#03A852" transform="translate(305,220)"/>
<path d="M0 0 C0.64066406 0.89460937 1.28132813 1.78921875 1.94140625 2.7109375 C2.66972656 3.7215625 3.39804687 4.7321875 4.1484375 5.7734375 C4.52436035 6.31613281 4.9002832 6.85882813 5.28759766 7.41796875 C6.54959917 9.14859789 7.90989483 10.73159167 9.328125 12.3359375 C10.26288282 13.45997047 11.19649798 14.58495477 12.12890625 15.7109375 C12.57935303 16.19256348 13.0297998 16.67418945 13.49389648 17.17041016 C19.06691615 24.28935137 16.07365348 30.40023465 15.50390625 40.0859375 C-0.00609375 40.0859375 -15.51609375 40.0859375 -31.49609375 40.0859375 C-31.49609375 26.5559375 -31.49609375 13.0259375 -31.49609375 -0.9140625 C-3.04700859 -2.33651676 -3.04700859 -2.33651676 0 0 Z " fill="#03A852" transform="translate(336.49609375,174.9140625)"/>
<path d="M0 0 C4.09393722 0.40392197 8.18732594 0.81297276 12.28027344 1.22680664 C13.67303539 1.36689447 15.06593973 1.50557408 16.45898438 1.64282227 C18.46000351 1.84021625 20.460481 2.04307712 22.4609375 2.24609375 C24.26763916 2.42676392 24.26763916 2.42676392 26.11083984 2.61108398 C29 3 29 3 31 4 C31 6.31 31 8.62 31 11 C32.32 11 33.64 11 35 11 C35 9.02 35 7.04 35 5 C50.51 5 66.02 5 82 5 C82 6.98 82 8.96 82 11 C83.32 11 84.64 11 86 11 C86 8.69 86 6.38 86 4 C101.75839578 1.63906622 117.06838707 0.56170083 133 1 C133 1.99 133 2.98 133 4 C133.99 4 134.98 4 136 4 C136 3.01 136 2.02 136 1 C139.375 0.875 139.375 0.875 143 1 C143.99 1.99 143.99 1.99 145 3 C132.14849231 5.88998368 119.2943768 8.39553203 106.25 10.25 C105.11014648 10.41274414 103.97029297 10.57548828 102.79589844 10.74316406 C88.39037565 12.7253438 74.21047049 13.23966185 59.6875 13.25 C58.70678528 13.25100708 57.72607056 13.25201416 56.71563721 13.25305176 C42.26807365 13.24301319 28.20937707 12.86383825 14 10 C13.12134277 9.82355957 12.24268555 9.64711914 11.33740234 9.46533203 C6.19912756 8.40906401 1.09375656 7.25277159 -4 6 C-2.68 4.02 -1.36 2.04 0 0 Z " fill="#02A74F" transform="translate(67,357)"/>
<path d="M0 0 C0.33 0 0.66 0 1 0 C2.26464763 6.18272173 1.88698193 11.0060283 -1.53125 16.359375 C-2.58111774 17.83953787 -3.65457095 19.30323133 -4.75 20.75 C-5.28786133 21.46542969 -5.82572266 22.18085938 -6.37988281 22.91796875 C-9.38911444 26.67630308 -9.38911444 26.67630308 -11 28 C-12.32 28 -13.64 28 -15 28 C-17.140625 25.59375 -17.140625 25.59375 -19.25 22.5 C-19.95640625 21.4790625 -20.6628125 20.458125 -21.390625 19.40625 C-21.92171875 18.6121875 -22.4528125 17.818125 -23 17 C-26.93642793 18.48255078 -28.09065419 20.536782 -30.125 24.125 C-33.21262742 28.80689257 -33.21262742 28.80689257 -36.67578125 29.65625 C-39.1869902 29.62783462 -41.53068622 29.44715944 -44 29 C-38.30893916 19.87871071 -31.5755292 11.48912807 -25 3 C-21.30361979 6.58341782 -18.27520208 10.22457962 -15.33203125 14.42578125 C-14.89246094 14.94527344 -14.45289063 15.46476562 -14 16 C-13.34 16 -12.68 16 -12 16 C-10.25296666 13.73948051 -8.61209579 11.47865985 -7 9.125 C-2.2016129 2.2016129 -2.2016129 2.2016129 0 0 Z " fill="#02A74F" transform="translate(148,279)"/>
<path d="M0 0 C3.01729163 0.17681671 6.00231806 0.62001215 9 1 C4.0517087 8.65815301 -1.38502958 15.86868559 -6.95068359 23.0847168 C-11.49250893 28.98359872 -11.49250893 28.98359872 -15.83203125 35.03125 C-16.22994873 35.59803467 -16.62786621 36.16481934 -17.0378418 36.7487793 C-18.0423535 38.1936249 -19.02606099 39.65287495 -20.0078125 41.11328125 C-22 43 -22 43 -25.03125 43.46484375 C-29.11908689 42.82477455 -30.37621772 41.51148282 -32.875 38.35546875 C-35.04648589 33.80892018 -34.4353058 28.90928203 -34 24 C-31 27 -28 30 -25 33 C-18.3760458 24.49875003 -11.92746494 15.88122521 -5.56005859 7.1862793 C-4.9820752 6.39777588 -4.4040918 5.60927246 -3.80859375 4.796875 C-3.29095459 4.08885742 -2.77331543 3.38083984 -2.23999023 2.65136719 C-1 1 -1 1 0 0 Z " fill="#02A750" transform="translate(238,219)"/>
<path d="M0 0 C3.20697119 3.20697119 5.75419638 5.80337823 8.33984375 9.36328125 C9.2225293 10.57081055 9.2225293 10.57081055 10.12304688 11.80273438 C10.72181641 12.63095703 11.32058594 13.45917969 11.9375 14.3125 C13.13379905 15.95465699 14.33041076 17.59658627 15.52734375 19.23828125 C16.10339355 20.03314941 16.67944336 20.82801758 17.27294922 21.64697266 C19.4425907 24.60300949 21.67985309 27.50467044 23.93579102 30.39526367 C25 32 25 32 25 34 C16.75 34 8.5 34 0 34 C0 22.78 0 11.56 0 0 Z " fill="#03A850" transform="translate(305,135)"/>
<path d="M0 0 C0.33 0 0.66 0 1 0 C1 10.89 1 21.78 1 33 C-7.25 33 -15.5 33 -24 33 C-20.0254464 26.54135039 -15.94529483 20.4899033 -11.12890625 14.63671875 C-7.88105758 10.61415388 -4.84463768 6.44020981 -1.78515625 2.2734375 C-1.19605469 1.52320313 -0.60695313 0.77296875 0 0 Z " fill="#04A851" transform="translate(300,136)"/>
<path d="M0 0 C5.47678238 1.82559413 8.4483739 7.01441989 11 12 C11.36156151 15.86775666 10.93074921 19.24064578 10 23 C4.19794344 17.35475578 4.19794344 17.35475578 2 14 C2 13.34 2 12.68 2 12 C1.34 12 0.68 12 0 12 C-0.26425781 12.568396 -0.52851563 13.13679199 -0.80078125 13.72241211 C-2.07976126 16.15148468 -3.54749988 18.24058802 -5.1875 20.44140625 C-5.80367187 21.27220703 -6.41984375 22.10300781 -7.0546875 22.95898438 C-7.69664062 23.81814453 -8.33859375 24.67730469 -9 25.5625 C-10.27138682 27.27172385 -11.54224294 28.98134262 -12.8125 30.69140625 C-13.37582031 31.44623291 -13.93914062 32.20105957 -14.51953125 32.97875977 C-15.72291389 34.62170252 -16.87034509 36.30551764 -18 38 C-21.33926306 38.41056513 -24.64335548 38.12910171 -28 38 C-23.63356392 31.2363657 -18.91203587 24.81299017 -14 18.4375 C-12.62473049 16.64473796 -11.24972645 14.85177224 -9.875 13.05859375 C-9.22273438 12.20894043 -8.57046875 11.35928711 -7.8984375 10.48388672 C-5.2413303 7.00736812 -2.61555804 3.50784476 0 0 Z " fill="#02A74F" transform="translate(189,224)"/>
<path d="M0 0 C0.33 0 0.66 0 1 0 C2.31126809 5.2138517 2.31747751 9.62018502 -0.29345703 14.33642578 C-3.66922718 19.41658477 -7.41823057 24.21500291 -11.2956543 28.92041016 C-12.35569141 30.21383461 -13.39108769 31.52838517 -14.38598633 32.87255859 C-16.32846759 35.44849926 -17.53997386 36.86165637 -20.67578125 37.8046875 C-21.98095703 37.83949219 -21.98095703 37.83949219 -23.3125 37.875 C-24.19550781 37.91367187 -25.07851562 37.95234375 -25.98828125 37.9921875 C-26.65214844 37.99476563 -27.31601563 37.99734375 -28 38 C-25.21155911 33.04277175 -21.82014669 28.55931772 -18.4375 24 C-17.8185083 23.16291504 -17.1995166 22.32583008 -16.56176758 21.46337891 C-2.51386928 2.51386928 -2.51386928 2.51386928 0 0 Z " fill="#03A850" transform="translate(97,317)"/>
<path d="M0 0 C0.33 0 0.66 0 1 0 C1 5.61 1 11.22 1 17 C-3.18097781 17.02301456 -7.36173382 17.04291039 -11.54272461 17.05493164 C-12.96363064 17.05994565 -14.38453156 17.06675852 -15.80541992 17.07543945 C-17.85336576 17.08763388 -19.9012431 17.09325772 -21.94921875 17.09765625 C-23.17987061 17.10289307 -24.41052246 17.10812988 -25.6784668 17.11352539 C-28.59219619 17.01393817 -31.17307326 16.67799322 -34 16 C-32.50923566 12.7173068 -30.61379679 10.06922559 -28.375 7.25 C-27.74335937 6.45078125 -27.11171875 5.6515625 -26.4609375 4.828125 C-25.97882813 4.22484375 -25.49671875 3.6215625 -25 3 C-21.06322574 4.31225809 -20.1728218 6.1961394 -17.8125 9.5625 C-17.09707031 10.57441406 -16.38164062 11.58632813 -15.64453125 12.62890625 C-15.10183594 13.41136719 -14.55914062 14.19382812 -14 15 C-9.81872043 13.47866487 -7.7945721 10.43366416 -5.3125 6.9375 C-4.51736874 5.84212718 -3.72181693 4.74705948 -2.92578125 3.65234375 C-2.29027344 2.77707031 -1.65476563 1.90179688 -1 1 C-0.67 0.67 -0.34 0.34 0 0 Z " fill="#29B56C" transform="translate(148,292)"/>
<path d="M0 0 C5.94 0 11.88 0 18 0 C18 0.99 18 1.98 18 3 C18.99 3 19.98 3 21 3 C21 2.01 21 1.02 21 0 C36.51 0 52.02 0 68 0 C68 0.99 68 1.98 68 3 C62.77086572 4.07483628 57.75493201 4.12930634 52.4453125 4.09765625 C51.09299026 4.09553383 51.09299026 4.09553383 49.71334839 4.09336853 C46.850531 4.0877974 43.98779352 4.07525026 41.125 4.0625 C39.17708447 4.05748127 37.2291677 4.05291901 35.28125 4.04882812 C30.52080282 4.03783742 25.76041493 4.02059277 21 4 C21 5.98 21 7.96 21 10 C19.68 10 18.36 10 17 10 C17 7.69 17 5.38 17 3 C11.39 2.34 5.78 1.68 0 1 C0 0.67 0 0.34 0 0 Z " fill="#25B469" transform="translate(81,358)"/>
<path d="M0 0 C-8.61268403 13.86183465 -8.61268403 13.86183465 -13 19 C-13.33 19 -13.66 19 -14 19 C-14.10864945 16.93867858 -14.18588321 14.87568679 -14.25 12.8125 C-14.29640625 11.66394531 -14.3428125 10.51539063 -14.390625 9.33203125 C-13.9249943 5.36020138 -12.77629613 3.81228515 -10 1 C-6.78548731 -0.60725635 -3.56387464 -0.05748185 0 0 Z " fill="#01A750" transform="translate(167,266)"/>
<path d="M0 0 C0.33 0 0.66 0 1 0 C1 5.61 1 11.22 1 17 C-3.29 16.67 -7.58 16.34 -12 16 C-8.3121249 10.29257425 -4.58904331 5.01593106 0 0 Z " fill="#20B265" transform="translate(148,292)"/>
<path d="M0 0 C2.31 0 4.62 0 7 0 C6.67 0.66 6.34 1.32 6 2 C17.55 2.33 29.1 2.66 41 3 C41 3.33 41 3.66 41 4 C25.49 4 9.98 4 -6 4 C-6 17.86 -6 31.72 -6 46 C-6.33 46 -6.66 46 -7 46 C-7 31.81 -7 17.62 -7 3 C-4.36 3 -1.72 3 1 3 C0.67 2.01 0.34 1.02 0 0 Z " fill="#25B266" transform="translate(210,262)"/>
<path d="M0 0 C2.97 0 5.94 0 9 0 C9 0.66 9 1.32 9 2 C9.66 2.33 10.32 2.66 11 3 C11 17.19 11 31.38 11 46 C10.67 46 10.34 46 10 46 C10 32.14 10 18.28 10 4 C6.37 4 2.74 4 -1 4 C-0.67 2.68 -0.34 1.36 0 0 Z " fill="#26B266" transform="translate(240,216)"/>
<path d="M0 0 C3.63 0 7.26 0 11 0 C10.67 0.66 10.34 1.32 10 2 C24.85 2.495 24.85 2.495 40 3 C40 3.33 40 3.66 40 4 C35.58919646 4.02490464 31.17843129 4.04295604 26.76757812 4.05493164 C25.27017503 4.05992943 23.77277673 4.0667299 22.27539062 4.07543945 C20.11066495 4.08770623 17.94600435 4.09327397 15.78125 4.09765625 C13.8331543 4.10551147 13.8331543 4.10551147 11.84570312 4.11352539 C7.81913327 3.9946608 3.98584904 3.56026769 0 3 C0 2.01 0 1.02 0 0 Z " fill="#39B872" transform="translate(160,262)"/>
<path d="M0 0 C0.90570419 6.89618858 1.1222984 13.61208545 1.0625 20.5625 C1.05798828 21.57119141 1.05347656 22.57988281 1.04882812 23.61914062 C1.03716769 26.07949147 1.02080378 28.53971239 1 31 C0.67 31 0.34 31 0 31 C-0.33 25.06 -0.66 19.12 -1 13 C-1.99 13.495 -1.99 13.495 -3 14 C-3.33 9.71 -3.66 5.42 -4 1 C-1 0 -1 0 0 0 Z " fill="#3CBB77" transform="translate(152,277)"/>
<path d="M0 0 C2.93200474 2.85276137 5.64315404 5.65079784 8 9 C7.67 9.66 7.34 10.32 7 11 C4.36 10.67 1.72 10.34 -1 10 C-1.02689216 8.52093108 -1.04634621 7.04172517 -1.0625 5.5625 C-1.07410156 4.73878906 -1.08570313 3.91507813 -1.09765625 3.06640625 C-1 1 -1 1 0 0 Z " fill="#04A74F" transform="translate(357,205)"/>
<path d="M0 0 C0 2.97 0 5.94 0 9 C-4.455 9.495 -4.455 9.495 -9 10 C-3.52830189 0 -3.52830189 0 0 0 Z " fill="#04A74F" transform="translate(250,206)"/>
<path d="M0 0 C2.64 0 5.28 0 8 0 C6.85845641 1.83600745 5.71165684 3.66874805 4.5625 5.5 C3.92441406 6.5209375 3.28632812 7.541875 2.62890625 8.59375 C2.09136719 9.3878125 1.55382812 10.181875 1 11 C0.67 11 0.34 11 0 11 C0 7.37 0 3.74 0 0 Z " fill="#00A750" transform="translate(102,312)"/>
<path d="M0 0 C0 3 0 3 -1.37695312 4.7175293 C-2.00537109 5.33023682 -2.63378906 5.94294434 -3.28125 6.57421875 C-3.95800781 7.24130859 -4.63476562 7.90839844 -5.33203125 8.59570312 C-6.04746094 9.28599609 -6.76289062 9.97628906 -7.5 10.6875 C-8.57314453 11.7403418 -8.57314453 11.7403418 -9.66796875 12.81445312 C-11.43879577 14.54986361 -13.21623456 16.2779073 -15 18 C-15.66 17.67 -16.32 17.34 -17 17 C-11.6749489 10.87372593 -6.27309565 5.16205691 0 0 Z " fill="#263784" transform="translate(85,68)"/>
<path d="M0 0 C0.33 0 0.66 0 1 0 C1.08075665 2.29109597 1.13907731 4.58299267 1.1875 6.875 C1.22230469 8.15117187 1.25710937 9.42734375 1.29296875 10.7421875 C1.19628906 11.81726563 1.09960938 12.89234375 1 14 C0.01 14.66 -0.98 15.32 -2 16 C-2.05384521 13.70858714 -2.09272087 11.41681812 -2.125 9.125 C-2.14820313 7.84882813 -2.17140625 6.57265625 -2.1953125 5.2578125 C-2 2 -2 2 0 0 Z " fill="#43BE7E" transform="translate(253,199)"/>
<path d="M0 0 C6.6 0 13.2 0 20 0 C20 0.33 20 0.66 20 1 C17.60468244 1.33745354 15.20885732 1.6700829 12.8125 2 C12.13896484 2.09539062 11.46542969 2.19078125 10.77148438 2.2890625 C7.15335423 2.78324613 3.65203599 3.11346131 0 3 C0 2.01 0 1.02 0 0 Z " fill="#1DB163" transform="translate(153,358)"/>
<path d="M0 0 C4 4 4 4 4.171875 6.578125 C4.03265625 7.45984375 3.8934375 8.3415625 3.75 9.25 C3.62109375 10.14203125 3.4921875 11.0340625 3.359375 11.953125 C3.24078125 12.62859375 3.1221875 13.3040625 3 14 C2.01 13.67 1.02 13.34 0 13 C0 8.71 0 4.42 0 0 Z " fill="#3EBC7A" transform="translate(200,238)"/>
<path d="M0 0 C5.94 0 11.88 0 18 0 C18 0.99 18 1.98 18 3 C12.06 2.34 6.12 1.68 0 1 C0 0.67 0 0.34 0 0 Z " fill="#2CB66E" transform="translate(81,358)"/>
<path d="M0 0 C2.64 0 5.28 0 8 0 C6.68 0.33 5.36 0.66 4 1 C4 2.98 4 4.96 4 7 C2.68 7 1.36 7 0 7 C0 4.69 0 2.38 0 0 Z " fill="#1CB061" transform="translate(98,361)"/>
<path d="M0 0 C3.63 0 7.26 0 11 0 C9.515 1.98 9.515 1.98 8 4 C5.36 3.67 2.72 3.34 0 3 C0 2.01 0 1.02 0 0 Z " fill="#3FBD7A" transform="translate(160,262)"/>
<path d="M0 0 C4.875 4.625 4.875 4.625 6 8 C4.02 8 2.04 8 0 8 C0 5.36 0 2.72 0 0 Z " fill="#19B05F" transform="translate(203,254)"/>
<path d="M0 0 C2.97 0 5.94 0 9 0 C8.67 0.99 8.34 1.98 8 3 C5.36 3 2.72 3 0 3 C0 2.01 0 1.02 0 0 Z " fill="#3FBD7A" transform="translate(240,216)"/>
<path d="M0 0 C2.31 0 4.62 0 7 0 C5 3 5 3 2 4 C0.43881572 4.06740865 -1.1250252 4.08514456 -2.6875 4.0625 C-3.89986328 4.04896484 -3.89986328 4.04896484 -5.13671875 4.03515625 C-6.05904297 4.01775391 -6.05904297 4.01775391 -7 4 C-7 3.67 -7 3.34 -7 3 C-4.36 3 -1.72 3 1 3 C0.67 2.01 0.34 1.02 0 0 Z " fill="#32B76F" transform="translate(210,262)"/>
<path d="M0 0 C0.33 0.99 0.66 1.98 1 3 C-0.65 4.65 -2.3 6.3 -4 8 C-4.66 7.67 -5.32 7.34 -6 7 C-4.02 4.69 -2.04 2.38 0 0 Z " fill="#12AA52" transform="translate(148,279)"/>
<path d="M0 0 C0 3 0 3 0 3 Z " fill="#5AC790" transform="translate(303,132)"/>
</svg>
